<svg width="131" height="136" viewBox="0 0 131 136" fill="none" xmlns="http://www.w3.org/2000/svg">
<g clip-path="url(#clip0_1_804)">
<path opacity="0.18" d="M5.191 52.7551C5.6633 59.5313 7.47899 66.1699 11.6349 71.2808C21.8797 83.6174 41.6375 87.0274 55.9214 81.2817C60.2522 79.5161 64.2325 76.8359 67.5419 73.4437C74.0353 66.7346 77.6117 57.7308 81.5781 49.3085C85.2794 40.5857 90.6783 29.8345 89.7629 20.2211C87.993 4.15741 72.6102 -0.941743 58.8289 0.43194C52.715 0.994702 46.6698 2.65274 40.8617 4.96596C31.9252 8.66129 23.2323 13.5595 16.2422 20.47C8.07072 28.7097 4.37944 40.982 5.18925 52.7185L5.18937 52.7551L5.191 52.7551Z" fill="white"/>
<path opacity="0.18" d="M21.5123 105.908C21.9756 96.4884 26.5686 87.1517 34.2301 82.0553C39.5137 78.4502 45.9037 77.0075 52.1511 76.8638C61.8344 76.619 71.4082 79.2665 80.7423 81.9481C92.4871 85.2044 103.255 89.9791 104.215 104.261C104.602 111.838 102.135 119.854 97.0347 125.278C92.7606 129.897 86.9028 132.491 80.827 133.746C66.4104 136.82 51.4881 134.894 37.792 129.433C27.434 125.346 20.9165 118.202 21.5108 105.948L21.5106 105.91L21.5123 105.908Z" fill="white"/>
<path opacity="0.18" d="M129.631 52.9006C128.493 42.6869 124.11 32.8535 115.85 26.9269C103.062 17.5721 83.0809 17.6391 71.9179 29.6962C62.4013 40.0513 60.3758 59.4988 66.3667 72.1606C67.9116 75.2922 70.0653 78.0539 72.5765 80.4448C77.4631 85.0788 83.6678 88.34 88.4146 93.1027C92.2657 96.7961 95.1683 101.663 98.4209 105.831C102.84 111.672 108.53 114.607 114.87 109.797C122.128 103.947 124.388 93.0349 126.484 84.2141C128.739 73.9527 130.785 63.4173 129.637 52.9356L129.634 52.9023L129.631 52.9006Z" fill="white"/>
<path opacity="0.18" d="M5.83019 97.0706C4.12767 94.116 2.4707 91.1263 1.65757 87.8441C0.432015 83.1248 0.974494 77.4591 3.82894 73.5972C8.31597 67.2709 18.2621 66.0863 24.4661 70.6278C29.7136 74.4132 31.6542 80.8583 32.2096 87.1081C32.6107 92.0548 32.255 97.4819 29.1449 100.962C26.3405 104.157 21.6621 104.835 17.6452 103.841C11.8365 102.492 7.57268 98.2852 3.60197 93.9445" fill="white"/>
<path d="M76.5073 6.3227C77.0993 6.80691 78.0749 6.90527 78.5466 7.52972C78.8542 8.31787 77.0854 8.53843 76.3272 8.57921C75.3406 8.63072 74.3797 8.52731 73.6129 7.94711C72.6241 7.27607 71.8712 5.45048 73.234 4.7834C74.6232 4.17283 75.5052 5.58177 76.4795 6.30447L76.5057 6.3227L76.5073 6.3227Z" fill="white"/>
<path d="M123.724 50.5424C123.934 51.2876 124.675 51.9411 124.708 52.7302C124.515 53.5549 122.945 52.6943 122.303 52.2819C121.468 51.7435 120.741 51.0932 120.443 50.1669C120.015 49.0362 120.431 47.1002 121.921 47.36C123.4 47.6799 123.327 49.35 123.713 50.5141L123.722 50.5441L123.724 50.5424Z" fill="white"/>
<path d="M106.707 66.8373C107.611 66.9642 110.151 66.7794 111.637 66.9461C112.075 66.9946 112.114 67.6238 111.687 67.7334C109.189 68.3809 103.853 68.0004 103.128 67.0222C100.859 63.9612 106.843 60.0908 108.592 58.6765C106.687 58.8876 102.715 59.6248 101.934 57.4197C101.866 57.2301 100.547 55.8576 103.168 52.2728C93.0373 51.9797 99.672 43.6218 104.172 40.1475C102.954 39.8751 102.685 39.9426 102.685 39.9426C102.685 39.9426 101.601 41.5794 99.8208 42.744C99.3082 43.0786 98.7448 43.3352 98.1449 43.437C95.9054 43.8156 94.2284 42.1929 94.211 40.3632C94.1838 37.5313 94.881 37.281 95.3861 36.1639C93.8313 36.9714 91.5456 39.1965 88.5073 38.2125C84.0878 36.7819 88.5835 28.5992 89.7241 26.2946L86.6171 25.2393C85.4156 27.3909 83.8067 30.6011 82.6493 32.7559C81.8974 33.2362 80.9331 33.0995 80.4681 32.5399C79.4684 31.5659 80.2135 29.5007 80.3644 28.2649C69.8522 34.8789 72.5728 27.5045 73.9262 19.9482C72.2182 21.7985 70.098 26.7534 67.1941 25.481C64.7026 24.6151 64.7409 21.3884 64.7074 19.1076C61.6471 22.8536 55.2293 36.2304 49.7374 30.5111C49.9385 35.6433 45.0221 40.3561 40.6091 36.4264C37.5682 33.1365 37.7772 30.2273 36.6087 25.9906C36.4189 25.3053 35.8782 23.5573 35.5287 22.8858C35.3432 22.5285 34.8725 22.6998 34.8151 23.0996C33.6671 31.1414 37.8593 45.8337 28.9106 29.3772C28.7843 29.1446 28.4374 29.3022 28.5231 29.5533C29.4353 32.2258 31.6562 37.1133 31.7685 39.532C31.7879 39.9598 31.88 44.7028 29.1888 44.1172C30.6183 47.3724 29.0304 53.0133 25.1179 53.4956C26.9176 56.7678 27.8487 61.1867 25.9309 64.7092C23.6613 68.8806 17.5651 69.375 12.8527 66.1472C6.79335 62.9705 5.43527 55.6278 10.471 52.0135C12.6464 50.4513 17.9957 53.9534 18.0627 55.4982C18.3882 56.7824 16.4851 57.3297 15.8329 56.3829C10.4051 48.311 5.26099 57.1933 20.5055 62.8773C21.0522 62.9887 21.8939 63.0609 22.75 63.0148C24.5322 62.9191 25.843 61.2899 25.5794 59.4893C25.2575 57.2827 24.3646 55.0397 23.1503 53.2673C21.3447 52.2176 18.9708 50.9318 16.9678 49.3334C13.5749 46.6257 12.5724 41.7975 14.6228 37.9332C15.3846 36.4973 16.3443 35.2155 17.8808 34.8092C20.1569 34.1175 21.3358 36.0349 22.5735 37.9938C24.6211 41.2353 24.0572 47.8484 24.0802 47.8783C24.583 48.5443 25.1052 49.1402 26.0202 49.1656C26.7444 49.1865 27.6513 48.724 28.0553 48.1C28.7758 46.9872 28.0491 44.687 27.7353 43.5093C26.9706 43.044 26.6623 41.0488 27.7987 40.9485C28.8833 40.9666 29.8404 43.3942 30.2673 41.2634C30.2535 37.0613 27.7405 33.6115 26.6724 29.6876C26.6262 29.5179 25.2459 24.8391 26.6163 23.4827C27.159 22.8899 28.4172 22.6344 28.9706 23.2969C30.7961 25.4469 31.6223 29.7296 33.0326 32.1042C32.6978 28.9553 32.2991 15.7673 36.9831 16.8192C37.76 16.9931 38.4238 17.5137 38.8273 18.2117C40.9612 21.9107 42.1565 26.3537 42.8701 30.6185C43.1146 32.0795 43.1724 33.2947 43.4577 34.2494C43.954 35.9126 46.1517 36.1868 47.0161 34.6889C47.8804 33.191 48.2533 31.0071 48.5522 29.6726C48.5239 29.4995 47.7107 28.1736 47.2205 26.8899C46.4307 24.7614 46.1819 22.9908 46.1989 21.216C46.2311 18.0826 47.483 13.9296 49.9756 12.1017C51.7978 10.7638 53.8742 9.87796 56.0106 9.86597C61.446 11.2384 57.2407 20.439 55.2914 23.3223C54.4019 24.5938 53.5369 25.8919 52.51 27.0641C53.0282 27.9414 53.9256 29.0656 55.1989 28.4238C58.0189 27.0011 62.9744 19.7959 64.8433 16.803C65.1012 14.8792 65.5072 11.8411 66.784 10.2886C67.6222 9.27023 69.9576 9.28923 71.0968 10.0214C71.4465 10.2467 71.6029 10.6857 71.4982 11.0939C70.5061 14.9197 69.0553 19.125 68.7982 23.2614C69.0744 24.952 76.5737 13.6595 76.6728 13.5244C78.2332 11.4215 79.4613 10.9563 80.3767 11.586C83.3054 12.4921 78.5797 20.1194 77.6443 22.3634C77.0181 23.8655 75.6973 26.4038 75.8317 28.1199C75.8777 28.7124 76.4824 29.0934 77.0214 28.8668C80.9187 27.2241 81.7253 24.0183 81.9003 23.6531C83.6982 19.8829 85.2485 14.1989 90.0818 15.5017C91.7054 16.2755 91.9938 17.1786 91.2265 17.9536C89.6969 19.4986 88.7246 21.3848 87.5645 23.2333C88.8888 24.2229 90.5343 24.2125 90.5343 24.2125C90.8555 24.1948 92.2876 20.7621 94.9082 19.6897C95.7718 19.4388 96.589 19.4877 97.2914 19.8434C98.3794 20.3959 98.5719 21.902 97.6776 22.7407C97.2224 23.1684 96.7476 23.6111 96.5533 24.023C95.3843 25.1357 85.9457 38.3558 90.1652 37.5062C95.7442 35.9463 99.0384 30.4014 104.689 29.1392C106.571 28.3023 109.485 29.5164 109.156 31.8617C109.047 33.3005 102.715 34.5865 101.188 36.0516C102.332 36.6806 103.005 37.5741 102.992 38.9676C106.38 40.1736 109.326 35.8485 111.945 36.4343C112.736 36.49 113.121 36.8983 113.42 37.515C113.737 38.1666 113.562 39.0512 113.014 39.5175C111.404 40.8897 108.702 41.5412 106.287 43.0624C104.369 44.2708 102.154 45.9362 100.847 47.7819C99.9605 49.0318 100.669 50.8092 102.156 51.0907C103.233 51.2937 104.295 51.3168 105.179 50.5231C107.822 48.1087 111.757 46.0979 114.982 46.0391C115.692 46.135 117.467 46.1259 117.711 46.6662C118.444 47.2764 118.724 48.972 117.338 49.566C117.114 49.6616 116.893 49.7539 116.678 49.8645C112.904 51.8064 108.714 53.783 105.196 56.495C104.901 56.7224 105.043 57.2064 105.412 57.2285C107.377 57.3486 113.155 56.151 114.032 55.7618C115.459 55.1278 119.459 52.8755 120.125 54.4999C122.043 59.1819 118.253 59.0378 115.662 60.4448C112.671 62.1944 108.976 63.4369 106.382 65.7496C105.989 66.1005 106.19 66.7624 106.707 66.834L106.707 66.8373ZM55.9627 13.1443C55.7028 12.4642 55.0039 12.2201 54.4002 12.6133C53.1552 13.4249 51.7128 14.6866 50.9858 16.8C49.4817 21.1736 51.7235 25.435 51.7235 25.435C51.7235 25.435 57.4793 17.1051 55.9627 13.1443ZM21.8103 46.4689C21.9529 43.2069 21.7022 39.8463 19.3258 37.808C17.1801 35.967 16.2579 39.2298 16.8894 40.8127C17.8201 43.1472 19.5895 45.1259 21.8103 46.4689ZM99.2255 37.2401C92.5766 42.2882 97.6674 44.5358 100.902 39.5721C100.035 39.0172 99.602 38.1612 99.2255 37.2401ZM101.505 38.5879C101.738 37.9162 101.187 37.1288 100.486 37.1344C100.683 37.9679 101.076 38.5294 101.505 38.5879Z" fill="white"/>
<path d="M42.1272 72.7277C41.9982 73.6754 47.3043 75.4295 48.8815 73.9659C48.8831 73.9642 48.8847 73.9626 48.888 73.9609C49.1823 73.6952 49.6465 74.02 49.5304 74.4033C49.3368 75.0383 48.8787 75.6025 48.276 75.8126C43.2391 77.5805 40.7063 74.0976 40.5599 74.1946C37.7755 76.0534 32.8092 77.9593 30.4245 74.8504C28.9508 71.5505 33.9899 69.9607 37.7391 70.904C40.0918 69.1981 46.0148 56.6571 41.0392 57.2178C40.3937 57.2899 39.7928 57.5849 39.3001 58.0144C38.3845 58.8148 36.9338 60.0383 36.3418 59.0663C36.1746 58.7904 36.1686 58.4392 36.3128 58.1507C37.7597 55.269 41.9028 54.4846 44.7555 55.5724C47.4603 57.7979 47.2146 61.4664 46.2183 64.5197C45.3949 67.0464 44.1044 69.4031 42.7059 71.6386C42.4723 72.0123 42.1766 72.3696 42.1289 72.726L42.1272 72.7277ZM32.9502 74.689C35.2224 74.7948 36.2976 73.4377 36.9005 72.297C36.0226 72.1583 33.8571 72.247 32.7364 73.1414C32.0922 73.6546 32.1346 74.6517 32.9502 74.689Z" fill="white"/>
<path d="M73.4817 72.4935C73.4017 73.4478 78.79 74.9136 80.2902 73.367C80.2918 73.3653 80.2935 73.3636 80.2951 73.3619C80.5763 73.0797 81.0568 73.3794 80.9602 73.7693C80.8008 74.4125 80.3722 75.0016 79.781 75.245C74.8429 77.2806 72.1328 73.9381 71.9913 74.0434C69.3069 76.0484 64.4458 78.2187 61.905 75.2435C60.2619 72.0273 65.2137 70.1698 69.0063 70.9099C71.2689 69.0794 76.5353 56.2376 71.5965 57.0662C70.9559 57.1732 70.3699 57.4981 69.9 57.9558C69.027 58.8044 67.6418 60.1026 66.9994 59.164C66.8175 58.8982 66.7935 58.547 66.923 58.2519C68.218 55.2975 72.3164 54.2901 75.2208 55.223C78.036 57.2998 77.9795 60.9761 77.1432 64.0789C76.4503 66.6451 75.284 69.068 74.0016 71.3764C73.7876 71.7633 73.5115 72.1355 73.4817 72.4935ZM64.4172 74.9439C66.6922 74.9265 67.6938 73.5147 68.2396 72.3425C67.3554 72.2522 65.1967 72.4557 64.1235 73.4099C63.5072 73.958 63.6001 74.9499 64.4172 74.9439Z" fill="white"/>
<path d="M86.219 75.0425C86.5431 73.901 87.1703 72.6986 87.3132 70.5204C84.2659 72.2569 80.6945 70.319 80.6945 70.319C79.1936 69.6863 79.5889 68.373 79.5889 68.373C81.1363 63.8062 82.5347 59.5312 84.074 54.9693C84.4794 53.7676 87.6489 53.992 87.4198 55.2547C86.7198 59.1129 84.6286 63.4817 82.8209 66.7675C82.4254 67.4864 82.7822 68.4009 83.5577 68.6314C87.9196 69.9241 88.1141 67.0765 88.88 62.8984C88.9041 62.7652 89.2148 60.0604 90.6669 55.7536C90.9722 54.8485 94.2814 55.8932 93.8859 57.1315C88.7491 73.2162 91.5221 76.3804 87.7938 76.3493C87.0306 76.3435 86.0046 75.7908 86.2174 75.0425L86.219 75.0425Z" fill="white"/>
<path d="M59.6969 59.8407C59.6171 59.3698 60.2295 59.143 60.4722 59.5501C62.1449 62.3617 62.116 68.963 60.4696 72.1966C56.3601 80.2631 48.4054 72.9986 49.0044 65.1817C49.1473 62.0129 50.3987 57.1857 53.1523 55.4036C54.2017 54.6193 56.8765 54.6671 58.1037 55.399C60.7313 56.9687 59.5262 58.5127 57.5944 57.2653C53.3239 54.5073 51.9445 63.0726 52.5247 67.9422C52.9574 71.5736 55.8519 72.9942 57.3165 72.4983C59.9751 71.5989 60.209 62.8308 59.6953 59.8424L59.6969 59.8407Z" fill="white"/>
<path d="M84.0852 94.2704C71.8344 92.3859 65.1762 97.0844 63.9366 97.5246C59.8592 98.9714 55.4355 100.24 51.0848 100.365C51.0848 100.365 50.4129 113.33 46.5838 117.871C46.4635 118.013 46.3745 118.218 46.6141 118.171C48.4124 117.491 50.1827 116.744 51.9729 116.084C52.274 115.422 52.199 110.924 54.1436 108.129C55.1776 106.642 56.7548 105.678 58.3259 105.376C59.9559 105.105 61.6538 105.653 63.2187 106.399C64.2632 107.143 64.9715 108.275 65.0431 109.723C65.209 113.072 61.9089 117.31 57.6552 119.673C57.6552 119.673 57.7419 120.254 57.8438 120.515C60.0419 125.391 66.8663 117.162 68.7344 114.895C69.0711 112.127 68.4376 109.922 68.5859 106.41C68.6495 104.916 68.7409 103.935 70.0949 103.055C70.6747 102.795 71.7101 102.734 72.4472 102.726C73.0636 102.719 73.5579 103.254 73.5013 103.881C73.4682 104.258 73.3977 104.636 73.3888 104.907C73.0169 106.87 72.8655 108.943 73.0155 110.926C73.0794 111.022 73.2261 111.013 73.337 110.991C74.2268 110.805 75.0755 110.489 75.957 110.25C76.1933 110.188 76.4163 110.06 76.4578 109.794C76.5641 108.377 76.9396 107.015 77.1438 105.613C77.8632 100.689 82.3469 102.323 82.1108 103.933C81.8141 105.957 80.9869 107.846 80.806 109.871C80.4876 113.237 80.3239 115.543 80.5177 118.947C80.5419 119.387 80.6078 121.568 81.641 121.819C83.0577 122.164 87.0489 118.305 88.0656 116.034C87.0834 113.418 86.3533 110.594 86.2903 107.779C86.2845 107.517 86.0709 102.527 88.0569 101.418C88.8777 101.069 89.9971 101.242 90.6369 101.897C91.1837 102.545 90.5474 104.437 90.5307 105.309C90.317 106.815 89.9985 108.661 90.1748 110.182C90.1832 110.258 90.8459 109.44 92.1181 109.483C93.3903 109.525 94.4923 110.381 94.9855 111.58C95.8058 113.57 95.3792 116.272 94.2043 117.561C92.8962 118.997 90.7703 119.242 88.9047 117.272C88.9047 117.272 87.0296 119.908 86.5244 120.499C84.9387 122.353 82.5135 123.321 82.2675 123.417C81.5606 123.692 80.4345 123.934 79.7532 123.555C79.1634 123.227 78.406 122.519 78.0908 121.911C76.658 119.147 76.5336 115.995 76.4273 112.939C76.4265 112.694 76.2923 112.538 76.0644 112.664C75.1688 113.086 74.2765 113.515 73.3727 113.946C73.1382 114.043 73.0068 114.252 73.0207 114.51C73.1474 116.356 73.0975 117.545 73.3879 120.066C73.4456 120.749 73.941 124.621 73.643 125.26C73.3882 125.65 72.2852 125.989 71.8641 125.892C69.687 125.409 69.4232 118.581 69.1022 116.654C69.0719 116.381 68.9493 116.285 68.756 116.514C67.5647 117.789 65.1934 120.764 63.4503 122.856C62.0727 124.507 60.1977 125.663 58.1099 126.063C57.9567 126.092 57.8067 126.117 57.6616 126.136C54.5711 125.634 52.8725 120.398 52.2191 117.588C44.7115 121.858 40.0874 121.196 38.8249 120.616C36.5202 119.556 34.9537 119.268 33.9413 115.905C32.9819 113.274 33.2046 110.561 35.0904 107.738C37.1734 104.846 41.3721 101.116 44.9793 103.519C45.2131 103.689 45.3628 103.599 45.3635 103.321C45.4386 102.322 45.4794 101.341 45.4909 100.365C45.5193 100.084 45.3229 99.8764 45.0455 99.8357C39.9613 99.5843 35.2854 96.5562 32.1182 92.5459C31.4713 91.7272 31.1043 90.7095 31.1008 89.6573C31.0958 88.1289 31.5231 86.113 33.029 84.8295C35.2035 82.9776 38.6176 82.6851 41.3637 83.6001C43.6184 84.3519 44.7034 85.5072 46.2383 87.0738C47.1477 87.855 47.7008 88.9437 48.3613 89.9238C49.3926 91.6103 50.3958 93.6548 50.6371 95.6435C50.6371 95.6435 55.339 96.6421 66.0165 92.2152C67.9709 91.4046 76.6632 86.826 86.2984 91.8125C90.3139 93.8904 92.6346 96.8646 94.2783 98.7972C94.3864 98.925 94.2189 99.1037 94.0898 98.9976C92.5232 97.7158 88.6653 94.9713 84.0786 94.2655L84.0852 94.2704ZM45.2918 95.8642C45.3471 95.7941 45.3434 95.6742 45.3349 95.5793C45.2144 94.1379 45.1617 91.4809 43.9433 88.9443C43.0747 87.1391 41.4801 85.7791 39.5575 85.3392C37.7948 84.9354 35.8186 85.0667 34.6911 86.3724C32.4555 88.9636 34.6953 91.6517 36.01 92.7096C38.4772 95.1023 41.9363 96.1199 45.2772 95.8792L45.2918 95.8642ZM37.9318 115.326C37.9613 116.368 38.3227 117.662 39.2736 118.187C40.275 118.716 41.6199 118.517 42.3377 117.606C42.8569 116.785 43.3596 115.902 43.5946 114.954C44.0253 112.517 44.9487 110.113 44.8607 107.638C44.8176 106.428 44.2425 106.105 44.0529 105.992C42.3339 104.979 40.34 107.681 40.126 108.068C38.9101 110.276 38.0293 112.747 37.9333 115.294L37.9334 115.326L37.9318 115.326ZM59.842 107.657C58.3435 108.238 57.3757 110.519 57.0431 112.043C56.7876 113.218 56.8145 115.94 57.0282 115.973C57.3676 116.025 60.658 114.304 61.4164 113.324C63.1021 111.151 62.6419 106.568 59.842 107.656L59.842 107.657ZM93.1096 111.446C92.9146 111.165 92.6234 110.888 92.2985 110.796C91.2717 110.495 90.292 111.622 90.4585 112.66C90.7323 114.087 91.1935 115.493 91.9364 116.741C92.061 116.945 92.2232 117.164 92.4044 117.215C93.0163 117.332 93.6407 116.758 93.8348 116.265C94.1891 115.391 93.8781 112.559 93.1096 111.446Z" fill="white"/>
<path d="M19.5689 86.1773C19.8571 87.0304 18.9988 87.8707 18.2683 88.4158C17.1457 89.2386 15.6909 89.7145 14.2917 89.7408C10.9013 89.8201 8.61677 87.4168 12.1741 86.04C13.7653 85.3805 18.6257 84.5055 19.5607 86.1557L19.5689 86.1773Z" fill="white"/>
<path d="M19.477 89.4839C22.0125 86.8317 22.8211 89.2298 22.518 91.8031C22.3403 93.3154 21.7341 94.9606 20.779 96.1391C20.0985 96.9905 19.0702 97.748 18.0152 97.7931C16.7808 97.8354 16.1514 96.8885 16.2418 95.6079C16.33 93.6447 18.0725 90.882 19.4445 89.5173L19.477 89.4839Z" fill="white"/>
<path d="M13.5012 81.4138C12.3017 80.6769 11.0516 79.9168 10.6499 78.7826C10.4561 77.3515 12.73 78.0116 13.486 78.2839C15.1418 78.9011 16.9929 79.924 18.16 81.2238C19.5845 82.9506 17.7471 83.1414 16.2728 82.6418C15.4647 82.4047 14.4815 81.9733 13.5551 81.4453L13.5012 81.4138Z" fill="white"/>
<path d="M107.751 86.8876C107.958 85.9729 109.171 85.7192 110.112 85.6495C111.548 85.5582 113.086 85.9611 114.334 86.7279C117.366 88.5726 118.075 91.9817 114.194 91.1852C112.435 90.8663 107.676 88.894 107.748 86.9109L107.751 86.8876Z" fill="white"/>
<path d="M109.624 84.0246C105.952 84.9273 106.539 82.3581 108.202 80.2632C109.178 79.0297 110.605 77.9245 112.084 77.4252C113.145 77.0588 114.462 76.9729 115.417 77.5292C116.528 78.1898 116.569 79.3784 115.795 80.4565C114.654 82.1368 111.619 83.5852 109.671 84.0144L109.624 84.0246Z" fill="white"/>
<path d="M110.516 94.5102C111.173 95.8366 111.862 97.2129 111.602 98.4391C110.996 99.8096 109.351 97.9436 108.832 97.2761C107.707 95.7963 106.631 93.8503 106.307 92.0449C105.988 89.7185 107.709 90.5886 108.738 91.8622C109.321 92.5279 109.953 93.4631 110.485 94.452L110.516 94.5102Z" fill="white"/>
</g>
<defs>
<clipPath id="clip0_1_804">
<rect width="129" height="135" fill="white" transform="translate(0.771301 0.42218) rotate(-0.187514)"/>
</clipPath>
</defs>
</svg>
